HIERARCHY
ROOT joint_Root
{
	OFFSET 0.0 0.0 0.0
	CHANNELS 6 Xposition Yposition Zposition Zrotation Xrotation Yrotation 
	JOINT Hips
	{
		OFFSET -17.1583 93.1646 452.98
		CHANNELS 6 Xposition Yposition Zposition Zrotation Xrotation Yrotation 
		JOINT Spine
		{
			OFFSET 15.7357 0.0 0.0
			CHANNELS 6 Xposition Yposition Zposition Zrotation Xrotation Yrotation 
			JOINT Chest
			{
				OFFSET 8.98455 -0.406207 0.0
				CHANNELS 6 Xposition Yposition Zposition Zrotation Xrotation Yrotation 
				JOINT Neck
				{
					OFFSET 16.3773 0.0 0.0
					CHANNELS 6 Xposition Yposition Zposition Zrotation Xrotation Yrotation 
					JOINT Head
					{
						OFFSET 6.45672 0.0 0.0
						CHANNELS 6 Xposition Yposition Zposition Zrotation Xrotation Yrotation 
						End Site
						{
							OFFSET 0.0 0.0 0.0
						}
					}
				}
				JOINT Shoulder_L
				{
					OFFSET 12.9942 -0.242716 4.98039
					CHANNELS 6 Xposition Yposition Zposition Zrotation Xrotation Yrotation 
					JOINT UpperArm_L
					{
						OFFSET 5.34809 0.0 0.0
						CHANNELS 6 Xposition Yposition Zposition Zrotation Xrotation Yrotation 
						JOINT LowerArm_L
						{
							OFFSET 24.3286 1.87007e-05 0.0
							CHANNELS 6 Xposition Yposition Zposition Zrotation Xrotation Yrotation 
							JOINT Hand_L
							{
								OFFSET 22.2916 0.0 0.0
								CHANNELS 6 Xposition Yposition Zposition Zrotation Xrotation Yrotation 
								End Site
								{
									OFFSET 0.0 0.0 0.0
								}
							}
						}
					}
				}
				JOINT Shoulder_R
				{
					OFFSET 12.9945 -0.242716 -4.98039
					CHANNELS 6 Xposition Yposition Zposition Zrotation Xrotation Yrotation 
					JOINT UpperArm_R
					{
						OFFSET -5.34813 0.0 0.0
						CHANNELS 6 Xposition Yposition Zposition Zrotation Xrotation Yrotation 
						JOINT LowerArm_R
						{
							OFFSET -24.3289 0.000322201 0.0
							CHANNELS 6 Xposition Yposition Zposition Zrotation Xrotation Yrotation 
							JOINT Hand_R
							{
								OFFSET -22.2915 -0.000108084 0.0
								CHANNELS 6 Xposition Yposition Zposition Zrotation Xrotation Yrotation 
								End Site
								{
									OFFSET 0.0 0.0 0.0
								}
							}
						}
					}
				}
			}
		}
		JOINT UpperLeg_L
		{
			OFFSET -2.19248 -6.46944 0.0
			CHANNELS 6 Xposition Yposition Zposition Zrotation Xrotation Yrotation 
			JOINT LowerLeg_L
			{
				OFFSET 39.0811 0.0 -1.23785e-05
				CHANNELS 6 Xposition Yposition Zposition Zrotation Xrotation Yrotation 
				JOINT Foot_L
				{
					OFFSET 40.9854 0.0 -1.26872e-05
					CHANNELS 6 Xposition Yposition Zposition Zrotation Xrotation Yrotation 
					JOINT Toes_L
					{
						OFFSET 11.7543 0.0 0.0
						CHANNELS 6 Xposition Yposition Zposition Zrotation Xrotation Yrotation 
						End Site
						{
							OFFSET 0.0 0.0 0.0
						}
					}
				}
			}
		}
		JOINT UpperLeg_R
		{
			OFFSET -2.19251 6.46944 0.0
			CHANNELS 6 Xposition Yposition Zposition Zrotation Xrotation Yrotation 
			JOINT LowerLeg_R
			{
				OFFSET -39.0811 -0.00228153 -0.0401928
				CHANNELS 6 Xposition Yposition Zposition Zrotation Xrotation Yrotation 
				JOINT Foot_R
				{
					OFFSET -40.9854 0.0 0.0
					CHANNELS 6 Xposition Yposition Zposition Zrotation Xrotation Yrotation 
					JOINT Toes_R
					{
						OFFSET -11.7543 0.0 0.0
						CHANNELS 6 Xposition Yposition Zposition Zrotation Xrotation Yrotation 
						End Site
						{
							OFFSET 0.0 0.0 0.0
						}
					}
				}
			}
		}
	}
}
MOTION
Frames:	8
Frame Time:	0.0333333
0.000000 0.000000 0.000000 0.000000 0.000000 -0.000000 -3.078800 92.021800 -0.061059 86.571200 2.292690 6.452990 15.735700 0.000005 -0.000001 90.060700 85.877200 -87.754500 8.984550 -0.406207 -0.000000 0.486533 -0.137674 4.609720 16.377300 -0.000001 -0.000001 12.084500 1.493970 -10.584600 6.456720 -0.000001 -0.000000 -5.126220 1.541890 -16.910000 12.994200 -0.242716 4.980390 -93.629300 9.761990 -69.490100 5.348090 -0.000007 -0.000001 -72.500200 -20.434000 -5.235050 24.328600 0.000019 0.000005 44.269200 -39.081800 -122.892000 22.291600 -0.000001 0.000005 58.317700 5.008330 7.141580 12.994500 -0.242716 -4.980390 87.362000 7.139430 -69.659400 -5.348130 -0.000001 -0.000004 -67.657300 31.008600 -6.342450 -24.328900 0.000322 -0.000009 1.161260 4.398200 -14.818900 -22.291500 -0.000108 -0.000004 -1.851000 5.312230 -0.273029 -2.192480 -6.469440 -0.000000 -175.757000 1.241480 -0.082717 39.081100 -0.000007 -0.000012 0.328882 -0.676670 25.921900 40.985400 -0.000006 -0.000013 1.362240 5.273310 -75.164800 11.754300 -0.000000 0.000003 -0.001193 0.185743 -9.041920 -2.192510 6.469440 -0.000001 -173.375000 11.230800 -174.229000 -39.081100 -0.002282 -0.040193 0.145800 -0.497506 15.980400 -40.985400 0.000008 0.000006 5.191030 0.417977 -71.726800 -11.754300 -0.000006 -0.000006 -0.010102 0.272065 -5.519920
0.000000 0.000000 0.000000 0.000000 0.000000 -0.000000 -3.105770 92.021300 -0.079084 86.614600 2.278420 6.480790 15.735700 0.000005 -0.000001 90.167900 85.865800 -87.867800 8.984550 -0.406207 -0.000000 0.508895 -0.121350 4.597500 16.377300 -0.000001 -0.000001 12.114300 1.553600 -10.742800 6.456720 -0.000001 -0.000000 -5.073400 1.599380 -17.055800 12.994200 -0.242716 4.980390 -93.599200 9.702060 -69.532100 5.348090 -0.000007 -0.000001 -72.487400 -21.143600 -5.632910 24.328600 0.000019 0.000005 43.202700 -38.011000 -123.253000 22.291600 -0.000001 0.000005 58.261900 4.979600 7.753910 12.994500 -0.242716 -4.980390 87.355000 7.155170 -69.650600 -5.348130 -0.000001 -0.000004 -67.521100 30.984100 -6.420350 -24.328900 0.000322 -0.000009 1.188430 4.497610 -14.830300 -22.291500 -0.000108 -0.000004 -1.873590 5.309950 -0.208293 -2.192480 -6.469440 -0.000000 -175.783000 1.238130 -0.056380 39.081100 -0.000007 -0.000012 0.326367 -0.671918 25.907700 40.985400 -0.000006 -0.000013 1.341720 5.270440 -75.164100 11.754300 -0.000000 0.000003 -0.001163 0.185322 -9.059030 -2.192510 6.469440 -0.000001 -173.410000 11.287700 -174.215000 -39.081100 -0.002282 -0.040193 0.147912 -0.503807 16.012800 -40.985400 0.000008 0.000006 5.219180 0.453998 -71.772700 -11.754300 -0.000006 -0.000006 -0.009973 0.271101 -5.559320
0.000000 0.000000 0.000000 0.000000 0.000000 -0.000000 -3.135690 92.018400 -0.083801 86.608500 2.254990 6.534180 15.735700 0.000005 -0.000001 90.189200 85.851800 -87.868900 8.984550 -0.406207 -0.000000 0.537061 -0.118881 4.637630 16.377300 -0.000001 -0.000001 12.188800 1.614480 -10.838800 6.456720 -0.000001 -0.000000 -5.102040 1.692340 -17.215000 12.994200 -0.242716 4.980390 -93.584200 9.666000 -69.541700 5.348090 -0.000007 -0.000001 -72.816000 -22.333100 -6.092730 24.328600 0.000019 0.000005 40.387100 -35.420300 -124.266000 22.291600 -0.000001 0.000005 56.970200 4.862610 10.131600 12.994500 -0.242716 -4.980390 87.349600 7.170540 -69.652400 -5.348130 -0.000001 -0.000004 -67.372600 30.982300 -6.495320 -24.328900 0.000322 -0.000009 1.169460 4.427720 -14.824000 -22.291500 -0.000108 -0.000004 -1.735090 5.311070 -0.240280 -2.192480 -6.469440 -0.000000 -175.755000 1.210570 -0.019128 39.081100 -0.000007 -0.000012 0.327345 -0.673289 25.929200 40.985400 -0.000006 -0.000013 1.317380 5.258840 -75.153200 11.754300 -0.000000 0.000003 -0.001189 0.185681 -9.044470 -2.192510 6.469440 -0.000001 -173.371000 11.154600 -174.187000 -39.081100 -0.002282 -0.040193 0.147515 -0.501828 16.030700 -40.985400 0.000008 0.000006 5.225970 0.369256 -71.729800 -11.754300 -0.000006 -0.000006 -0.010045 0.271638 -5.537360
0.000000 0.000000 0.000000 0.000000 0.000000 -0.000000 -3.165150 92.018600 -0.111920 86.610700 2.218700 6.561050 15.735700 0.000005 -0.000001 90.352200 85.842900 -88.027400 8.984550 -0.406207 -0.000000 0.554210 -0.095120 4.646730 16.377300 -0.000001 -0.000001 12.200900 1.638390 -10.813900 6.456720 -0.000001 -0.000000 -5.135490 1.773020 -17.268000 12.994200 -0.242716 4.980390 -93.561600 9.605250 -69.543300 5.348090 -0.000007 -0.000001 -73.371200 -23.711500 -6.521970 24.328600 0.000019 0.000005 36.449500 -32.078100 -125.716000 22.291600 -0.000001 0.000005 54.423900 4.687070 13.406300 12.994500 -0.242716 -4.980390 87.339000 7.198890 -69.650900 -5.348130 -0.000001 -0.000004 -67.255700 30.938600 -6.538170 -24.328900 0.000322 -0.000009 1.167030 4.406270 -14.863300 -22.291500 -0.000108 -0.000004 -1.868190 5.309930 -0.207565 -2.192480 -6.469440 -0.000000 -175.744000 1.197820 -0.005862 39.081100 -0.000007 -0.000012 0.330853 -0.680169 25.940300 40.985400 -0.000006 -0.000013 1.295020 5.244370 -75.170100 11.754300 -0.000000 0.000003 -0.001196 0.185780 -9.040430 -2.192510 6.469440 -0.000001 -173.330000 11.091500 -174.176000 -39.081100 -0.002282 -0.040193 0.148602 -0.505746 16.026800 -40.985400 0.000008 0.000006 5.250530 0.313829 -71.730300 -11.754300 -0.000006 -0.000006 -0.009971 0.271091 -5.559750
0.000000 0.000000 0.000000 0.000000 0.000000 -0.000000 -3.200880 92.011200 -0.124915 86.596100 2.184540 6.614330 15.735700 0.000005 -0.000001 90.456900 85.832300 -88.129200 8.984550 -0.406207 -0.000000 0.575062 -0.079525 4.652270 16.377300 -0.000001 -0.000001 12.222700 1.682490 -10.747300 6.456720 -0.000001 -0.000000 -5.185880 1.804210 -17.166400 12.994200 -0.242716 4.980390 -93.545700 9.579550 -69.577900 5.348090 -0.000007 -0.000001 -73.994200 -25.099600 -6.879750 24.328600 0.000019 0.000005 30.559200 -27.693400 -128.206000 22.291600 -0.000001 0.000005 52.026400 4.471540 17.082500 12.994500 -0.242716 -4.980390 87.329500 7.227760 -69.658500 -5.348130 -0.000001 -0.000004 -67.170800 30.879300 -6.567700 -24.328900 0.000322 -0.000009 1.180190 4.470950 -14.815900 -22.291500 -0.000108 -0.000004 -1.798260 5.311140 -0.242162 -2.192480 -6.469440 -0.000000 -175.698000 1.215260 0.016228 39.081100 -0.000007 -0.000012 0.327682 -0.672168 25.990000 40.985400 -0.000006 -0.000013 1.269280 5.254950 -75.158500 11.754300 -0.000000 0.000003 -0.001124 0.184775 -9.081300 -2.192510 6.469440 -0.000001 -173.276000 10.968400 -174.164000 -39.081100 -0.002282 -0.040193 0.148969 -0.505284 16.079100 -40.985400 0.000008 0.000006 5.261490 0.223170 -71.730300 -11.754300 -0.000006 -0.000006 -0.010196 0.272763 -5.491330
0.000000 0.000000 0.000000 0.000000 0.000000 -0.000000 -3.224110 92.012400 -0.140814 86.603400 2.136600 6.594950 15.735700 0.000005 -0.000001 90.418900 85.839500 -88.112300 8.984550 -0.406207 -0.000000 0.560606 -0.084115 4.610290 16.377300 -0.000001 -0.000001 12.112500 1.671260 -10.610400 6.456720 -0.000001 -0.000000 -5.189740 1.792050 -17.011700 12.994200 -0.242716 4.980390 -93.540000 9.527380 -69.506700 5.348090 -0.000007 -0.000001 -74.534300 -26.036300 -7.063300 24.328600 0.000019 0.000005 24.170800 -22.864300 -130.885000 22.291600 -0.000001 0.000005 50.732100 4.278090 20.131200 12.994500 -0.242716 -4.980390 87.324000 7.248890 -69.674300 -5.348130 -0.000001 -0.000004 -67.136700 30.942700 -6.562030 -24.328900 0.000322 -0.000009 1.179790 4.462860 -14.836600 -22.291500 -0.000108 -0.000004 -1.700770 5.310370 -0.220191 -2.192480 -6.469440 -0.000000 -175.696000 1.236880 -0.005494 39.081100 -0.000007 -0.000012 0.327289 -0.671519 25.984700 40.985400 -0.000006 -0.000013 1.237490 5.202700 -75.150100 11.754300 -0.000000 0.000003 -0.001118 0.184691 -9.084710 -2.192510 6.469440 -0.000001 -173.276000 10.999100 -174.189000 -39.081100 -0.002282 -0.040193 0.148490 -0.503718 16.076100 -40.985400 0.000008 0.000006 5.293160 0.301265 -71.711000 -11.754300 -0.000006 -0.000006 -0.009878 0.270393 -5.588270
0.000000 0.000000 0.000000 0.000000 0.000000 -0.000000 -3.252750 92.004500 -0.137567 86.579400 2.107270 6.608610 15.735700 0.000005 -0.000001 90.464900 85.852400 -88.176100 8.984550 -0.406207 -0.000000 0.534457 -0.077061 4.574710 16.377300 -0.000001 -0.000001 12.067500 1.646840 -10.494600 6.456720 -0.000001 -0.000000 -5.205580 1.674260 -16.781800 12.994200 -0.242716 4.980390 -93.536500 9.513800 -69.498500 5.348090 -0.000007 -0.000001 -74.801700 -26.289100 -6.945470 24.328600 0.000019 0.000005 20.725800 -20.172200 -132.345000 22.291600 -0.000001 0.000005 50.626600 4.174320 21.694600 12.994500 -0.242716 -4.980390 87.316100 7.275640 -69.688100 -5.348130 -0.000001 -0.000004 -67.156800 30.885200 -6.469470 -24.328900 0.000322 -0.000009 1.187650 4.496970 -14.823200 -22.291500 -0.000108 -0.000004 -1.744150 5.311000 -0.238040 -2.192480 -6.469440 -0.000000 -175.646000 1.201130 -0.017283 39.081100 -0.000007 -0.000012 0.326409 -0.668132 26.038100 40.985400 -0.000006 -0.000013 1.218960 5.203830 -75.143600 11.754300 -0.000000 0.000003 -0.001106 0.184526 -9.091420 -2.192510 6.469440 -0.000001 -173.227000 10.976300 -174.182000 -39.081100 -0.002282 -0.040193 0.148286 -0.502599 16.088600 -40.985400 0.000008 0.000006 5.317020 0.292431 -71.697900 -11.754300 -0.000006 -0.000006 -0.009612 0.268381 -5.670590
0.000000 0.000000 0.000000 0.000000 0.000000 -0.000000 -3.282390 92.004900 -0.151687 86.569800 2.056590 6.595910 15.735700 0.000005 -0.000001 90.803800 85.860100 -88.538700 8.984550 -0.406207 -0.000000 0.517521 -0.027060 4.527030 16.377300 -0.000001 -0.000001 11.971500 1.558050 -10.353400 6.456720 -0.000001 -0.000000 -5.204580 1.551150 -16.684300 12.994200 -0.242716 4.980390 -93.552700 9.563370 -69.509200 5.348090 -0.000007 -0.000001 -74.659300 -25.396700 -6.523980 24.328600 0.000019 0.000005 23.151000 -22.404500 -131.713000 22.291600 -0.000001 0.000005 50.900800 4.209560 21.170900 12.994500 -0.242716 -4.980390 87.312900 7.274060 -69.661400 -5.348130 -0.000001 -0.000004 -67.233300 30.842500 -6.419430 -24.328900 0.000322 -0.000009 1.198440 4.549500 -14.787000 -22.291500 -0.000108 -0.000004 -1.771940 5.309720 -0.201743 -2.192480 -6.469440 -0.000000 -175.636000 1.227190 -0.034496 39.081100 -0.000007 -0.000012 0.331797 -0.678672 26.054300 40.985400 -0.000006 -0.000013 1.185830 5.135690 -75.197900 11.754300 -0.000000 0.000003 -0.001165 0.185357 -9.057640 -2.192510 6.469440 -0.000001 -173.181000 10.899300 -174.195000 -39.081100 -0.002282 -0.040193 0.148695 -0.504348 16.078600 -40.985400 0.000008 0.000006 5.329320 0.249317 -71.727200 -11.754300 -0.000006 -0.000006 -0.010048 0.271665 -5.536270
